<?xml version="1.0" encoding="UTF-8"?>
<svg width="314px" height="314px" viewBox="0 0 314 314" version="1.1" xmlns="http://www.w3.org/2000/svg" xmlns:xlink="http://www.w3.org/1999/xlink" style="background: #FFF8DE;">
    <!-- Generator: Sketch 49.1 (51147) - http://www.bohemiancoding.com/sketch -->
    <title>joule-uncropped</title>
    <desc>Created with Sketch.</desc>
    <defs></defs>
    <g id="joule-uncropped" stroke="none" stroke-width="1" fill="none" fill-rule="evenodd">
        <path d="M81.292,250.615091 C75.8199726,250.615091 71.6200146,249.367103 68.692,246.871091 C65.7639854,244.375078 64.3,240.703115 64.3,235.855091 L64.3,232.759091 L74.668,232.759091 L74.668,235.711091 C74.668,237.679101 75.2319944,239.191086 76.36,240.247091 C77.4880056,241.303096 79.1319892,241.831091 81.292,241.831091 C83.4040106,241.831091 84.9879947,241.303096 86.044,240.247091 C87.1000053,239.191086 87.628,237.679101 87.628,235.711091 L87.628,200.359091 L98.14,200.359091 L98.14,235.855091 C98.14,240.703115 96.7000144,244.375078 93.82,246.871091 C90.9399856,249.367103 86.7640274,250.615091 81.292,250.615091 Z M124.492,250.615091 C118.011968,250.615091 113.188016,249.007107 110.02,245.791091 C106.851984,242.575075 105.268,237.583125 105.268,230.815091 C105.268,224.047057 106.851984,219.055107 110.02,215.839091 C113.188016,212.623075 118.011968,211.015091 124.492,211.015091 C130.972032,211.015091 135.807984,212.623075 139,215.839091 C142.192016,219.055107 143.788,224.047057 143.788,230.815091 C143.788,237.583125 142.192016,242.575075 139,245.791091 C135.807984,249.007107 130.972032,250.615091 124.492,250.615091 Z M124.492,242.551091 C127.708016,242.551091 130.035993,241.6271 131.476,239.779091 C132.916007,237.931082 133.636,235.13511 133.636,231.391091 L133.636,230.239091 C133.636,226.495072 132.916007,223.6991 131.476,221.851091 C130.035993,220.003082 127.708016,219.079091 124.492,219.079091 C121.275984,219.079091 118.960007,220.003082 117.544,221.851091 C116.127993,223.6991 115.42,226.495072 115.42,230.239091 L115.42,231.391091 C115.42,235.13511 116.127993,237.931082 117.544,239.779091 C118.960007,241.6271 121.275984,242.551091 124.492,242.551091 Z M163.948,250.615091 C160.059981,250.615091 157.000011,249.559101 154.768,247.447091 C152.535989,245.33508 151.42,241.951114 151.42,237.295091 L151.42,211.879091 L161.284,211.879091 L161.284,235.207091 C161.284,237.559103 161.835994,239.263086 162.94,240.319091 C164.044006,241.375096 165.675989,241.903091 167.836,241.903091 C170.044011,241.903091 171.879993,241.123099 173.344,239.563091 C174.808007,238.003083 175.54,236.071102 175.54,233.767091 L175.54,211.879091 L185.404,211.879091 L185.404,249.751091 L176.98,249.751091 L176.26,244.783091 L175.756,244.783091 C172.683985,248.67111 168.748024,250.615091 163.948,250.615091 Z M195.628,249.751091 L195.628,197.695091 L205.492,197.695091 L205.492,249.751091 L195.628,249.751091 Z M231.268,250.615091 C225.17197,250.615091 220.624015,249.007107 217.624,245.791091 C214.623985,242.575075 213.124,237.583125 213.124,230.815091 C213.124,224.047057 214.623985,219.055107 217.624,215.839091 C220.624015,212.623075 225.17197,211.015091 231.268,211.015091 C236.884028,211.015091 241.083986,212.635075 243.868,215.875091 C246.652014,219.115107 248.044,224.095057 248.044,230.815091 L248.044,233.119091 L223.132,233.119091 C223.228,236.479108 223.899994,238.963083 225.148,240.571091 C226.396006,242.179099 228.483985,242.983091 231.412,242.983091 C233.47601,242.983091 235.143994,242.407097 236.416,241.255091 C237.688006,240.103085 238.324,238.471101 238.324,236.359091 L248.044,236.359091 C248.044,241.111115 246.508015,244.675079 243.436,247.051091 C240.363985,249.427103 236.308025,250.615091 231.268,250.615091 Z M237.82,226.567091 C237.82,221.335065 235.636022,218.719091 231.268,218.719091 C228.771988,218.719091 226.888006,219.367084 225.616,220.663091 C224.343994,221.959097 223.564001,223.927078 223.276,226.567091 L237.82,226.567091 Z" id="Joule-Copy-2" fill="#3D0060"></path>
        <g id="Crimson-Jewel" transform="translate(80.132438, 49.248909)">
            <polygon id="Path-2" fill="#FF4444" points="76.8930603 115.661862 0.661870909 39.0275237 49.2467458 39.0275237"></polygon>
            <polygon id="Path-2-Copy" fill="#FF5252" transform="translate(115.008655, 77.375861) scale(-1, 1) translate(-115.008655, -77.375861) " points="153.12425 115.693031 76.8930603 39.0586919 125.477935 39.0586919"></polygon>
            <polygon id="Path-3" fill="#FF6868" points="76.8933011 115.693031 105.554756 39.0312195 49.238739 39.0312195"></polygon>
            <polygon id="Path-4" fill="#FB7A7A" points="153.114014 39.0583801 105.542099 39.0583801 129.328056 0.802104454"></polygon>
            <polygon id="Path-4-Copy-2" fill="#FF5E5E" points="49.238739 39.0586919 0.661870909 39.0586919 24.950305 0.802416277"></polygon>
            <polygon id="Path-4-Copy-3" fill="#FF8181" transform="translate(51.270003, 20.104768) scale(1, -1) translate(-51.270003, -20.104768) " points="77.589701 39.40712 24.950305 39.40712 48.9295678 0.802416277"></polygon>
            <polygon id="Path-4-Copy-4" fill="#FDA0A0" transform="translate(103.008358, 20.104456) scale(-1, -1) translate(-103.008358, -20.104456) " points="129.328056 39.4068082 76.6886601 39.4068082 100.667923 0.802104454"></polygon>
            <polygon id="Path-4-Copy" fill="#FF8B8B" points="105.542099 39.0275237 49.2260812 39.0275237 77.3840899 0.771248056"></polygon>
        </g>
        <polygon id="Jewel-Outline" stroke="#3D0060" stroke-width="8" points="157.027183 164.918448 80.8086455 88.2884257 105.079908 50.0436259 209.455965 50.0436259 233.191355 88.2884257"></polygon>
    </g>
</svg>