<?xml version="1.0" encoding="UTF-8"?>
<svg width="230px" height="230px" viewBox="0 0 230 230" version="1.1" xmlns="http://www.w3.org/2000/svg" xmlns:xlink="http://www.w3.org/1999/xlink">
    <!-- Generator: Sketch 49.1 (51147) - http://www.bohemiancoding.com/sketch -->
    <title>joule-cropped-transparent</title>
    <desc>Created with Sketch.</desc>
    <defs></defs>
    <g id="joule-cropped-transparent" stroke="none" stroke-width="1" fill="none" fill-rule="evenodd">
        <path d="M39.292,208.615091 C33.8199726,208.615091 29.6200146,207.367103 26.692,204.871091 C23.7639854,202.375078 22.3,198.703115 22.3,193.855091 L22.3,190.759091 L32.668,190.759091 L32.668,193.711091 C32.668,195.679101 33.2319944,197.191086 34.36,198.247091 C35.4880056,199.303096 37.1319892,199.831091 39.292,199.831091 C41.4040106,199.831091 42.9879947,199.303096 44.044,198.247091 C45.1000053,197.191086 45.628,195.679101 45.628,193.711091 L45.628,158.359091 L56.14,158.359091 L56.14,193.855091 C56.14,198.703115 54.7000144,202.375078 51.82,204.871091 C48.9399856,207.367103 44.7640274,208.615091 39.292,208.615091 Z M82.492,208.615091 C76.0119676,208.615091 71.1880158,207.007107 68.02,203.791091 C64.8519842,200.575075 63.268,195.583125 63.268,188.815091 C63.268,182.047057 64.8519842,177.055107 68.02,173.839091 C71.1880158,170.623075 76.0119676,169.015091 82.492,169.015091 C88.9720324,169.015091 93.807984,170.623075 97,173.839091 C100.192016,177.055107 101.788,182.047057 101.788,188.815091 C101.788,195.583125 100.192016,200.575075 97,203.791091 C93.807984,207.007107 88.9720324,208.615091 82.492,208.615091 Z M82.492,200.551091 C85.7080161,200.551091 88.0359928,199.6271 89.476,197.779091 C90.9160072,195.931082 91.636,193.13511 91.636,189.391091 L91.636,188.239091 C91.636,184.495072 90.9160072,181.6991 89.476,179.851091 C88.0359928,178.003082 85.7080161,177.079091 82.492,177.079091 C79.2759839,177.079091 76.9600071,178.003082 75.544,179.851091 C74.1279929,181.6991 73.42,184.495072 73.42,188.239091 L73.42,189.391091 C73.42,193.13511 74.1279929,195.931082 75.544,197.779091 C76.9600071,199.6271 79.2759839,200.551091 82.492,200.551091 Z M121.948,208.615091 C118.059981,208.615091 115.000011,207.559101 112.768,205.447091 C110.535989,203.33508 109.42,199.951114 109.42,195.295091 L109.42,169.879091 L119.284,169.879091 L119.284,193.207091 C119.284,195.559103 119.835994,197.263086 120.94,198.319091 C122.044006,199.375096 123.675989,199.903091 125.836,199.903091 C128.044011,199.903091 129.879993,199.123099 131.344,197.563091 C132.808007,196.003083 133.54,194.071102 133.54,191.767091 L133.54,169.879091 L143.404,169.879091 L143.404,207.751091 L134.98,207.751091 L134.26,202.783091 L133.756,202.783091 C130.683985,206.67111 126.748024,208.615091 121.948,208.615091 Z M153.628,207.751091 L153.628,155.695091 L163.492,155.695091 L163.492,207.751091 L153.628,207.751091 Z M189.268,208.615091 C183.17197,208.615091 178.624015,207.007107 175.624,203.791091 C172.623985,200.575075 171.124,195.583125 171.124,188.815091 C171.124,182.047057 172.623985,177.055107 175.624,173.839091 C178.624015,170.623075 183.17197,169.015091 189.268,169.015091 C194.884028,169.015091 199.083986,170.635075 201.868,173.875091 C204.652014,177.115107 206.044,182.095057 206.044,188.815091 L206.044,191.119091 L181.132,191.119091 C181.228,194.479108 181.899994,196.963083 183.148,198.571091 C184.396006,200.179099 186.483985,200.983091 189.412,200.983091 C191.47601,200.983091 193.143994,200.407097 194.416,199.255091 C195.688006,198.103085 196.324,196.471101 196.324,194.359091 L206.044,194.359091 C206.044,199.111115 204.508015,202.675079 201.436,205.051091 C198.363985,207.427103 194.308025,208.615091 189.268,208.615091 Z M195.82,184.567091 C195.82,179.335065 193.636022,176.719091 189.268,176.719091 C186.771988,176.719091 184.888006,177.367084 183.616,178.663091 C182.343994,179.959097 181.564001,181.927078 181.276,184.567091 L195.82,184.567091 Z" id="Joule-Copy-2" fill="#3D0060"></path>
        <g id="Crimson-Jewel" transform="translate(38.132438, 7.248909)">
            <polygon id="Path-2" fill="#FF4444" points="76.8930603 115.661862 0.661870909 39.0275237 49.2467458 39.0275237"></polygon>
            <polygon id="Path-2-Copy" fill="#FF5252" transform="translate(115.008655, 77.375861) scale(-1, 1) translate(-115.008655, -77.375861) " points="153.12425 115.693031 76.8930603 39.0586919 125.477935 39.0586919"></polygon>
            <polygon id="Path-3" fill="#FF6868" points="76.8933011 115.693031 105.554756 39.0312195 49.238739 39.0312195"></polygon>
            <polygon id="Path-4" fill="#FB7A7A" points="153.114014 39.0583801 105.542099 39.0583801 129.328056 0.802104454"></polygon>
            <polygon id="Path-4-Copy-2" fill="#FF5E5E" points="49.238739 39.0586919 0.661870909 39.0586919 24.950305 0.802416277"></polygon>
            <polygon id="Path-4-Copy-3" fill="#FF8181" transform="translate(51.270003, 20.104768) scale(1, -1) translate(-51.270003, -20.104768) " points="77.589701 39.40712 24.950305 39.40712 48.9295678 0.802416277"></polygon>
            <polygon id="Path-4-Copy-4" fill="#FDA0A0" transform="translate(103.008358, 20.104456) scale(-1, -1) translate(-103.008358, -20.104456) " points="129.328056 39.4068082 76.6886601 39.4068082 100.667923 0.802104454"></polygon>
            <polygon id="Path-4-Copy" fill="#FF8B8B" points="105.542099 39.0275237 49.2260812 39.0275237 77.3840899 0.771248056"></polygon>
        </g>
        <polygon id="Jewel-Outline" stroke="#3D0060" stroke-width="8" points="115.027183 122.918448 38.8086455 46.2884257 63.0799075 8.0436259 167.455965 8.0436259 191.191355 46.2884257"></polygon>
    </g>
</svg>